<?xml version="1.0" encoding="UTF-8"?>
<svg version="1.1" xmlns="http://www.w3.org/2000/svg" width="238" height="100">
<path d="M0 0 C2.625 2.375 2.625 2.375 4 5 C3.875 7.75 3.875 7.75 3 10 C2.34 10.33 1.68 10.66 1 11 C1.66 11.33 2.32 11.66 3 12 C5.49037611 14.49037611 5.5509207 16.42190609 5.7265625 19.8671875 C4.54985149 23.32140368 2.03538377 25.19306563 -1 27 C-11.50120999 29.88246345 -24.36903918 30.29497192 -34.1875 25.0625 C-37 23 -37 23 -39 20 C-39 18.68 -39 17.36 -39 16 C-31.52543456 15.80613519 -24.55967056 15.83986222 -17.265625 17.5546875 C-13.80219095 18.23543143 -10.51897189 18.13033229 -7 18 C-7 17.34 -7 16.68 -7 16 C-8.39798828 16.03480469 -8.39798828 16.03480469 -9.82421875 16.0703125 C-32.03979178 16.38478977 -32.03979178 16.38478977 -36.80859375 12.54296875 C-38.29368865 10.61964912 -38.78561571 9.42968862 -39 7 C-38.17451341 3.3311707 -37.15588811 2.12471049 -34.1875 -0.25 C-25.44342553 -5.05066834 -8.79107219 -5.14349445 0 0 Z M-25 7 C-25 7.66 -25 8.32 -25 9 C-21.39006828 10.13480527 -18.0157673 10.10015767 -14.25 10.0625 C-13.07953125 10.05347656 -11.9090625 10.04445313 -10.703125 10.03515625 C-9.81109375 10.02355469 -8.9190625 10.01195312 -8 10 C-9.04796427 8.36195471 -9.04796427 8.36195471 -11 7 C-14.43080118 6.63601382 -14.43080118 6.63601382 -18.1875 6.8125 C-20.09595703 6.85310547 -20.09595703 6.85310547 -22.04296875 6.89453125 C-23.01878906 6.92933594 -23.99460937 6.96414062 -25 7 Z " fill="#DFDFDF" transform="translate(125,39)"/>
<path d="M0 0 C1.11991333 0.00737183 1.11991333 0.00737183 2.26245117 0.01489258 C9.21316015 0.16252228 14.93683341 0.82102853 20.1875 5.6875 C21.74530584 8.53218893 21.98952547 10.1229021 21.625 13.3125 C20.635 13.6425 19.645 13.9725 18.625 14.3125 C19.285 14.6425 19.945 14.9725 20.625 15.3125 C22.625 17.3125 22.625 17.3125 23.25 21.1875 C23.02622218 24.4776388 22.58203299 25.37239341 20.5625 28.1875 C12.41310839 33.84413653 -0.0823816 32.70317404 -9.328125 31.08203125 C-14.67904455 29.73058106 -18.23716066 28.01925901 -21.375 23.3125 C-21.375 21.9925 -21.375 20.6725 -21.375 19.3125 C-14.18293508 19.1283504 -7.46080643 19.00505731 -0.484375 20.8671875 C3.22055042 21.64933842 6.85354828 21.43222863 10.625 21.3125 C10.625 20.6525 10.625 19.9925 10.625 19.3125 C9.74199219 19.32410156 8.85898438 19.33570312 7.94921875 19.34765625 C-14.12360335 19.51361732 -14.12360335 19.51361732 -19.375 15.3125 C-20.375 14.3125 -20.375 14.3125 -20.75 10.5 C-20.69661328 7.1840918 -20.58749502 6.55719124 -18.3125 3.9375 C-12.38854062 0.66041609 -6.62858957 -0.05144221 0 0 Z M-7.375 10.3125 C-7.375 10.9725 -7.375 11.6325 -7.375 12.3125 C-3.91277385 13.37973961 -0.73460734 13.41423486 2.875 13.375 C4.49148437 13.36146484 4.49148437 13.36146484 6.140625 13.34765625 C7.37039062 13.33025391 7.37039062 13.33025391 8.625 13.3125 C8.625 12.6525 8.625 11.9925 8.625 11.3125 C5.62186252 9.81093126 2.83432478 10.21968796 -0.5 10.25 C-1.78132813 10.25902344 -3.06265625 10.26804687 -4.3828125 10.27734375 C-5.37023437 10.28894531 -6.35765625 10.30054688 -7.375 10.3125 Z " fill="#DBDBDC" transform="translate(153.375,35.6875)"/>
<path d="M0 0 C4.29 0 8.58 0 13 0 C13.08138426 2.87557703 13.14067851 5.74882262 13.1875 8.625 C13.21263672 9.43324219 13.23777344 10.24148437 13.26367188 11.07421875 C13.32576437 16.16580366 12.81725996 19.58156351 10 24 C5.32194035 28.67805965 0.11582587 30.06907106 -6.375 30.25 C-13.78786607 30.04794573 -20.16129318 28.84185444 -26 24 C-28.15589193 20.96215227 -28.06005606 18.64540266 -28 15 C-26.08458862 14.89158049 -24.16740227 14.81421921 -22.25 14.75 C-21.18265625 14.70359375 -20.1153125 14.6571875 -19.015625 14.609375 C-15.28226536 15.09297081 -14.57003673 16.38916904 -12 19 C-8.25873568 19.52252295 -4.79803065 19.1808586 -1 19 C-0.67 12.73 -0.34 6.46 0 0 Z " fill="#DCDCDD" transform="translate(70,37)"/>
<path d="M0 0 C3.63 0 7.26 0 11 0 C10.34 0.66 9.68 1.32 9 2 C9.66 2.33 10.32 2.66 11 3 C13.49037611 5.49037611 13.5509207 7.42190609 13.7265625 10.8671875 C12.54985149 14.32140368 10.03538377 16.19306563 7 18 C-3.50120999 20.88246345 -16.36903918 21.29497192 -26.1875 16.0625 C-29 14 -29 14 -31 11 C-31 9.68 -31 8.36 -31 7 C-23.52543456 6.80613519 -16.55967056 6.83986222 -9.265625 8.5546875 C-5.80219095 9.23543143 -2.51897189 9.13033229 1 9 C1 8.34 1 7.68 1 7 C-3.95 7 -8.9 7 -14 7 C-14 6.67 -14 6.34 -14 6 C-13.01257813 5.96261719 -12.02515625 5.92523438 -11.0078125 5.88671875 C-9.72648437 5.82097656 -8.44515625 5.75523438 -7.125 5.6875 C-5.21074219 5.60048828 -5.21074219 5.60048828 -3.2578125 5.51171875 C-2.18273437 5.34285156 -1.10765625 5.17398438 0 5 C0.66 4.01 1.32 3.02 2 2 C1.34 1.34 0.68 0.68 0 0 Z " fill="#D5D5D6" transform="translate(117,48)"/>
<path d="M0 0 C1.11991333 0.00737183 1.11991333 0.00737183 2.26245117 0.01489258 C9.22887414 0.16285603 14.9809178 0.79739742 20.1875 5.75 C21.625 8.3125 21.625 8.3125 21.625 12.3125 C19.68757659 12.33953381 17.75004521 12.35891125 15.8125 12.375 C14.73355469 12.38660156 13.65460938 12.39820313 12.54296875 12.41015625 C9.625 12.3125 9.625 12.3125 6.625 11.3125 C4.23245424 11.08689324 1.83571877 10.90401405 -0.5625 10.75 C-1.83480469 10.66621094 -3.10710937 10.58242188 -4.41796875 10.49609375 C-5.39378906 10.43550781 -6.36960938 10.37492187 -7.375 10.3125 C-7.375 10.9725 -7.375 11.6325 -7.375 12.3125 C-6.055 12.3125 -4.735 12.3125 -3.375 12.3125 C-3.375 14.2925 -3.375 16.2725 -3.375 18.3125 C-15.10917302 18.86735582 -15.10917302 18.86735582 -19.375 15.3125 C-20.375 14.3125 -20.375 14.3125 -20.75 10.5 C-20.69661328 7.1840918 -20.58749502 6.55719124 -18.3125 3.9375 C-12.38854062 0.66041609 -6.62858957 -0.05144221 0 0 Z " fill="#E0E0E0" transform="translate(153.375,35.6875)"/>
<path d="M0 0 C0.89847656 0.09023438 1.79695312 0.18046875 2.72265625 0.2734375 C4.9375 0.625 4.9375 0.625 5.9375 1.625 C5.97842937 3.95797433 5.97991723 6.29205225 5.9375 8.625 C4.14591511 8.65196365 2.35421527 8.67137917 0.5625 8.6875 C-0.43523437 8.69910156 -1.43296875 8.71070312 -2.4609375 8.72265625 C-5.0625 8.625 -5.0625 8.625 -7.0625 7.625 C-7.0625 5.315 -7.0625 3.005 -7.0625 0.625 C-4.46138792 -0.67555604 -2.87508678 -0.30612435 0 0 Z " fill="#257353" transform="translate(187.0625,58.375)"/>
<path d="M0 0 C0.33 0.66 0.66 1.32 1 2 C0.01 2.495 0.01 2.495 -1 3 C-0.67 3.66 -0.34 4.32 0 5 C-6.6 5 -13.2 5 -20 5 C-20.66 3.68 -21.32 2.36 -22 1 C-15.14666929 -1.28444357 -7.03434717 -1.71950709 0 0 Z " fill="#EAEAEA" transform="translate(119,49)"/>
<path d="M0 0 C4.62 0 9.24 0 14 0 C13.67 1.98 13.34 3.96 13 6 C10.03 5.505 10.03 5.505 7 5 C7 6.32 7 7.64 7 9 C3.34683329 7.75023244 2.21934164 7.32901247 0 4 C0 2.68 0 1.36 0 0 Z " fill="#DBDBDB" transform="translate(86,55)"/>
<path d="M0 0 C0.99 0.495 0.99 0.495 2 1 C2 1.33 2 1.66 2 2 C4.31 2 6.62 2 9 2 C9 3.32 9 4.64 9 6 C9.66 6.33 10.32 6.66 11 7 C7.37 7 3.74 7 0 7 C0 4.69 0 2.38 0 0 Z " fill="#24B384" transform="translate(180,59)"/>
<path d="M0 0 C5.75 -0.125 5.75 -0.125 8 1 C8 2.32 8 3.64 8 5 C5.03 5 2.06 5 -1 5 C-0.67 3.35 -0.34 1.7 0 0 Z " fill="#ECECEC" transform="translate(167,43)"/>
<path d="M0 0 C1.65 0 3.3 0 5 0 C4.67 1.65 4.34 3.3 4 5 C2.35 4.67 0.7 4.34 -1 4 C-0.67 2.68 -0.34 1.36 0 0 Z " fill="#F4F4F4" transform="translate(95,56)"/>
</svg>
